<?xml version="1.0" encoding="UTF-8" standalone="no"?>
<!-- Created with Inkscape (http://www.inkscape.org/) -->

<svg
   xmlns:dc="http://purl.org/dc/elements/1.1/"
   xmlns:cc="http://creativecommons.org/ns#"
   xmlns:rdf="http://www.w3.org/1999/02/22-rdf-syntax-ns#"
   xmlns:svg="http://www.w3.org/2000/svg"
   xmlns="http://www.w3.org/2000/svg"
   xmlns:sodipodi="http://sodipodi.sourceforge.net/DTD/sodipodi-0.dtd"
   xmlns:inkscape="http://www.inkscape.org/namespaces/inkscape"
   width="100"
   height="100"
   viewBox="0 0 99.999997 99.999997"
   id="svg4366"
   version="1.1"
   inkscape:version="0.91 r13725"
   sodipodi:docname="computer.svg">
  <defs
     id="defs4368" />
  <sodipodi:namedview
     id="base"
     pagecolor="#ffffff"
     bordercolor="#666666"
     borderopacity="1.0"
     inkscape:pageopacity="0.0"
     inkscape:pageshadow="2"
     inkscape:zoom="4"
     inkscape:cx="52.888132"
     inkscape:cy="44.7139"
     inkscape:document-units="px"
     inkscape:current-layer="g4848"
     showgrid="false"
     units="px"
     inkscape:snap-bbox="true"
     inkscape:bbox-paths="false"
     inkscape:snap-bbox-edge-midpoints="true"
     inkscape:snap-bbox-midpoints="false"
     inkscape:bbox-nodes="false"
     inkscape:snap-global="true"
     inkscape:snap-nodes="true"
     inkscape:window-width="1366"
     inkscape:window-height="706"
     inkscape:window-x="0"
     inkscape:window-y="32"
     inkscape:window-maximized="1" />
  <metadata
     id="metadata4371">
    <rdf:RDF>
      <cc:Work
         rdf:about="">
        <dc:format>image/svg+xml</dc:format>
        <dc:type
           rdf:resource="http://purl.org/dc/dcmitype/StillImage" />
        <dc:title />
      </cc:Work>
    </rdf:RDF>
  </metadata>
  <g
     inkscape:label="Camada 1"
     inkscape:groupmode="layer"
     id="layer1"
     transform="translate(0,-952.36223)">
    <g
       style="opacity:0.98999999"
       id="g4848"
       transform="matrix(0.15067099,0,0,0.15067099,4.1772205,968.09247)">
      <g
         id="g4784" />
      <g
         id="g4786" />
      <g
         id="g4788" />
      <g
         id="g4790" />
      <g
         id="g4792" />
      <g
         id="g4794" />
      <g
         id="g4796" />
      <g
         id="g4798" />
      <g
         id="g4800" />
      <g
         id="g4802" />
      <g
         id="g4804" />
      <g
         id="g4806" />
      <g
         id="g4808" />
      <g
         id="g4810" />
      <g
         id="g4812" />
      <path
         style="opacity:1;fill:#eaeff8;fill-opacity:1;stroke:none;stroke-width:5.89156437"
         d="M 2.6953125 20.623047 C 1.4990471 20.623047 0.53710938 21.586938 0.53710938 22.783203 L 0.53710938 23.212891 L 99.279297 23.212891 L 99.279297 22.783203 C 99.279297 21.586938 98.317359 20.623047 97.121094 20.623047 L 2.6953125 20.623047 z M 0.53710938 77.884766 L 0.53710938 78.316406 C 0.53710937 79.512672 1.4990471 80.474609 2.6953125 80.474609 L 97.121094 80.474609 C 98.317359 80.474609 99.279297 79.512672 99.279297 78.316406 L 99.279297 77.884766 L 0.53710938 77.884766 z "
         transform="matrix(6.6369777,0,0,6.6369777,-27.724119,-104.40125)"
         id="rect4881" />
      <rect
         ry="0"
         y="49.668259"
         x="-24.16114"
         height="362.84842"
         width="655.35529"
         id="rect4883"
         style="opacity:1;fill:#689fe1;fill-opacity:0;stroke:none;stroke-width:6.16438818" />
      <g
         id="g4879"
         transform="matrix(0.7967197,0,0,0.7967197,7.828804,27.172671)">
        <path
           inkscape:connector-curvature="0"
           style="fill:#fc6e51"
           d="m 373.243,74.644 -319.926,0 c -5.89,0 -10.669,4.78 -10.669,10.669 0,5.89 4.78,10.67 10.669,10.67 l 319.926,0 c 5.889,0 10.67,-4.78 10.67,-10.67 0,-5.889 -4.782,-10.669 -10.67,-10.669 z"
           id="path4772" />
        <path
           inkscape:connector-curvature="0"
           style="fill:#5155f1;fill-opacity:0.99215686"
           d="m 97.685657,138.63 170.631993,0 c 5.89,0 10.654,-4.765 10.654,-10.654 0,-5.905 -4.764,-10.669 -10.654,-10.669 l -170.631993,0 c -5.89,0 -10.669,4.764 -10.669,10.669 -10e-4,5.889 4.779,10.654 10.669,10.654 z"
           id="path4774" />
        <path
           inkscape:connector-curvature="0"
           style="fill:#ed5564;fill-opacity:0.99215686"
           d="m 97.685657,181.29 234.617993,0 c 5.89,0 10.654,-4.78 10.654,-10.669 0,-5.889 -4.765,-10.653 -10.654,-10.653 l -234.617993,0 c -5.89,0 -10.669,4.764 -10.669,10.653 -10e-4,5.889 4.779,10.669 10.669,10.669 z"
           id="path4776" />
        <path
           inkscape:connector-curvature="0"
           style="fill:#5d9cec"
           d="m 97.685657,223.938 149.292993,0.016 c 5.905,0 10.669,-4.78 10.669,-10.669 0,-5.889 -4.764,-10.669 -10.669,-10.669 l -149.292993,0 c -5.89,0 -10.669,4.78 -10.669,10.669 -10e-4,5.888 4.779,10.653 10.669,10.653 z"
           id="path4778" />
        <path
           inkscape:connector-curvature="0"
           style="fill:#ffce54"
           d="m 327.74921,245.275 -277.264004,0 c -5.89,0 -10.669,4.78 -10.669,10.654 0,5.905 4.78,10.67 10.669,10.67 l 277.264004,0 c 5.905,0 10.67,-4.765 10.67,-10.654 0,-5.888 -4.765,-10.67 -10.67,-10.67 z"
           id="path4780" />
        <path
           id="path4854"
           d="m 165.37231,287.93 -85.307998,0 c -5.89,0 -10.669,4.781 -10.669,10.654 0,5.905 4.78,10.686 10.669,10.686 l 85.308998,0 c 5.905,0 10.669,-4.78 10.669,-10.686 0,-5.873 -4.765,-10.654 -10.67,-10.654 z"
           style="fill:#bc868b;fill-opacity:1"
           inkscape:connector-curvature="0" />
        <path
           id="path4856"
           d="m 327.7492,373.25147 -277.263994,0 c -5.89,0 -10.669,4.78 -10.669,10.654 0,5.905 4.78,10.67 10.669,10.67 l 277.263994,0 c 5.905,0 10.67,-4.765 10.67,-10.654 0,-5.888 -4.765,-10.67 -10.67,-10.67 z"
           style="fill:#5458ff;fill-opacity:1"
           inkscape:connector-curvature="0" />
        <path
           id="path4860"
           d="m 80.064312,351.92847 234.617998,0 c 5.89,0 10.654,-4.78 10.654,-10.669 0,-5.889 -4.765,-10.653 -10.654,-10.653 l -234.617998,0 c -5.89,0 -10.669,4.764 -10.669,10.653 -0.001,5.889 4.779,10.669 10.669,10.669 z"
           style="fill:#48cfad"
           inkscape:connector-curvature="0" />
        <path
           id="path4866"
           d="m 135.89265,415.91447 -85.307998,0 c -5.89,0 -10.669,4.781 -10.669,10.654 0,5.905 4.78,10.686 10.669,10.686 l 85.308998,0 c 5.905,0 10.669,-4.78 10.669,-10.686 0,-5.873 -4.765,-10.654 -10.67,-10.654 z"
           style="fill:#ed5564"
           inkscape:connector-curvature="0" />
      </g>
    </g>
  </g>
</svg>
