<?xml version="1.0" encoding="UTF-8" standalone="no"?>
<!-- Created with Inkscape (http://www.inkscape.org/) -->

<svg
   xmlns:dc="http://purl.org/dc/elements/1.1/"
   xmlns:cc="http://creativecommons.org/ns#"
   xmlns:rdf="http://www.w3.org/1999/02/22-rdf-syntax-ns#"
   xmlns:svg="http://www.w3.org/2000/svg"
   xmlns="http://www.w3.org/2000/svg"
   xmlns:sodipodi="http://sodipodi.sourceforge.net/DTD/sodipodi-0.dtd"
   xmlns:inkscape="http://www.inkscape.org/namespaces/inkscape"
   width="100"
   height="100"
   viewBox="0 0 99.999997 99.999997"
   id="svg4366"
   version="1.1"
   inkscape:version="0.91 r13725"
   sodipodi:docname="pencil.svg">
  <defs
     id="defs4368" />
  <sodipodi:namedview
     id="base"
     pagecolor="#ffffff"
     bordercolor="#666666"
     borderopacity="1.0"
     inkscape:pageopacity="0.0"
     inkscape:pageshadow="2"
     inkscape:zoom="4"
     inkscape:cx="50.865938"
     inkscape:cy="45.918783"
     inkscape:document-units="px"
     inkscape:current-layer="layer1"
     showgrid="false"
     units="px"
     inkscape:snap-bbox="true"
     inkscape:bbox-paths="true"
     inkscape:snap-bbox-edge-midpoints="true"
     inkscape:snap-bbox-midpoints="false"
     inkscape:bbox-nodes="false"
     inkscape:snap-global="true"
     inkscape:snap-nodes="true"
     inkscape:window-width="1366"
     inkscape:window-height="706"
     inkscape:window-x="0"
     inkscape:window-y="32"
     inkscape:window-maximized="1" />
  <metadata
     id="metadata4371">
    <rdf:RDF>
      <cc:Work
         rdf:about="">
        <dc:format>image/svg+xml</dc:format>
        <dc:type
           rdf:resource="http://purl.org/dc/dcmitype/StillImage" />
        <dc:title></dc:title>
      </cc:Work>
    </rdf:RDF>
  </metadata>
  <g
     inkscape:label="Camada 1"
     inkscape:groupmode="layer"
     id="layer1"
     transform="translate(0,-952.36223)">
    <g
       inkscape:export-ydpi="96"
       inkscape:export-xdpi="96"
       inkscape:export-filename="/tmp/inkscape/render.png"
       transform="matrix(13.901414,0,0,13.901414,-1301.8324,-903.5452)"
       id="g4366"
       style="display:inline;opacity:0.98999999;fill:#ffffff">
      <path
         transform="scale(0.26458333,0.26458333)"
         inkscape:connector-curvature="0"
         id="path4368"
         style="opacity:0.98999999;fill:#ffffff;fill-opacity:0.99215686;stroke-width:0.05310278"
         d="m 377.49609,504.8418 c -0.96879,5.1e-4 -1.87938,0.37765 -2.56445,1.0625 -0.008,0.008 -0.0139,0.014 -0.0215,0.0254 l -13.92969,15.7832 c -9e-4,10e-4 -0.003,0.002 -0.004,0.004 l -0.006,0.008 c -0.005,0.008 -0.008,0.0172 -0.0137,0.0195 0.37697,0.0727 0.66029,0.18326 1.08594,0.4082 0.007,0.004 0.0134,0.007 0.0195,0.0117 0.003,-0.004 0.005,-0.008 0.008,-0.0117 0.003,-0.004 0.005,10e-4 0.008,-0.002 0.003,-0.002 0.007,-0.002 0.01,-0.004 -0.003,-0.003 -0.006,-0.006 -0.01,-0.008 l 13.65235,-15.46094 c 0.49118,-0.48499 1.13332,-0.7255 1.77539,-0.72461 l 0.002,0 c 0.64208,0.002 1.28467,0.24768 1.77344,0.73633 0.97867,0.97875 0.98243,2.5693 0.0117,3.55274 l -15.43359,13.62695 0,0.002 -0.0117,0.0117 c -0.005,0.005 -0.0103,0.008 -0.0156,0.0117 -0.003,0.002 -0.004,0.005 -0.008,0.006 l -0.002,0.002 -0.002,0 -0.002,0.002 c -8e-4,0.001 1e-5,0.004 -0.002,0.004 -0.007,0.006 -0.009,0.006 -0.0137,0.008 10e-4,0.002 0.003,0.003 0.004,0.006 0.27427,0.49767 0.40647,1.07286 0.41211,1.09765 0.002,-10e-4 0.004,-0.002 0.006,-0.004 0.001,-3.8e-4 0.003,-0.002 0.004,-0.002 l 0.002,0 c 0.0174,-0.01 0.009,-0.006 0.0215,-0.0137 l 0.004,-0.002 15.78516,-13.93164 c 0.008,-0.008 0.0178,-0.0139 0.0254,-0.0215 1.41509,-1.41524 1.41525,-3.71952 -0.002,-5.13476 l -0.002,-0.002 c -0.685,-0.68499 -1.59571,-1.06199 -2.56445,-1.0625 z m -17.29492,16.79882 0,0.002 c 0.0195,0.002 0.0391,0.003 0.0586,0.004 -0.0197,-10e-4 -0.0392,-0.003 -0.0586,-0.006 z m 3.50195,2.28907 c -8.1e-4,0 -0.005,0.005 -0.004,0.004 0.001,-0.002 0.003,-0.003 0.004,-0.004 z m -6.93164,2.08789 c -0.0161,0.0189 -0.0245,0.0329 -0.0449,0.0547 0.012,0.0132 0.018,0.026 0.0254,0.0391 0.007,-0.0319 0.0128,-0.0623 0.0195,-0.0937 z m 5.90625,1.76172 c -0.0986,0.14362 -0.21351,0.27773 -0.33593,0.40625 0.001,8.2e-4 0.003,7.5e-4 0.004,0.002 0.11994,-0.13009 0.23577,-0.26266 0.33203,-0.4082 z" />
      <path
         style="opacity:0.98999999;fill:#ffffff;fill-opacity:0.99215686;stroke-width:0.01412447"
         d="m 95.271344,137.99351 c -0.308283,0 -0.598048,0.12014 -0.816048,0.33812 -0.219379,0.21939 -0.281954,0.51715 -0.354494,0.86185 -0.07283,0.34602 -0.155443,0.73812 -0.42059,1.14074 -0.02648,0.0403 -0.03176,0.091 -0.01397,0.13573 0.01777,0.0448 0.05644,0.0781 0.103332,0.0892 0.19996,0.0474 0.403632,0.0713 0.605657,0.0713 0.770912,0 1.390072,-0.34444 1.712339,-0.66673 0.217994,-0.21796 0.337922,-0.50775 0.337922,-0.81604 0,-0.0867 -0.0098,-0.17193 -0.02835,-0.25451 0,0 -0.03589,-0.15973 -0.110029,-0.29436 -0.0526,-0.097 -0.119383,-0.18698 -0.199589,-0.26717 -0.08019,-0.0802 -0.170169,-0.147 -0.267176,-0.19959 -0.115747,-0.0612 -0.190722,-0.0908 -0.294726,-0.11004 -0.08257,-0.0185 -0.167677,-0.0284 -0.254327,-0.0284 z m 1.82e-4,0.29529 c 0.229421,0 0.445125,0.0893 0.607332,0.25154 0.162236,0.16223 0.251539,0.37789 0.251539,0.60733 1e-5,0.22945 -0.08926,0.44511 -0.251539,0.60734 -0.280455,0.28048 -0.82266,0.58033 -1.503434,0.58033 -0.111921,0 -0.2247,-0.009 -0.336807,-0.0249 0.209381,-0.3835 0.286902,-0.75187 0.350957,-1.05622 0.06544,-0.31092 0.117301,-0.55649 0.274621,-0.71383 0.162234,-0.16223 0.377893,-0.25154 0.607331,-0.25154 z"
         id="path4370"
         inkscape:connector-curvature="0" />
      <rect
         style="opacity:0;fill:#ffffff;fill-opacity:0.99215686;stroke:none;stroke-width:0.26458332"
         id="rect4372"
         width="2.7005372"
         height="2.7564106"
         x="95.356903"
         y="133.8503"
         ry="0.64883506" />
      <g
         id="g4374"
         transform="matrix(0.01431817,0,0,0.01431817,93.637418,133.38936)"
         style="opacity:0.98999999;fill:#ffffff;fill-opacity:0.99215686">
        <g
           id="g4376"
           style="fill:#ffffff;fill-opacity:0.99215686">
          <path
             inkscape:connector-curvature="0"
             d="m 350.778,161.379 c -4.069,-4.094 -10.685,-4.113 -14.778,-0.044 l -0.173,0.172 c -4.093,4.069 -4.112,10.686 -0.044,14.778 2.043,2.055 4.726,3.083 7.411,3.083 2.664,0 5.328,-1.013 7.368,-3.039 l 0.173,-0.172 c 4.092,-4.069 4.112,-10.686 0.043,-14.778 z"
             id="path4378"
             style="fill:#ffffff;fill-opacity:0.99215686" />
        </g>
      </g>
      <g
         id="g4380"
         transform="matrix(0.01431817,0,0,0.01431817,93.637418,133.38936)"
         style="opacity:0.98999999;fill:#ffffff;fill-opacity:0.99215686">
        <g
           id="g4382"
           style="fill:#ffffff;fill-opacity:0.99215686">
          <path
             inkscape:connector-curvature="0"
             d="m 446.431,65.68 c -4.082,-4.078 -10.697,-4.08 -14.779,0 l -71.77,71.77 c -4.081,4.082 -4.081,10.698 0,14.779 2.041,2.04 4.714,3.061 7.389,3.061 2.674,0 5.349,-1.021 7.389,-3.061 l 71.771,-71.77 c 4.08,-4.082 4.08,-10.698 0,-14.779 z"
             id="path4384"
             style="fill:#ffffff;fill-opacity:0.99215686" />
        </g>
      </g>
    </g>
  </g>
</svg>
